<?xml version="1.0" standalone="no"?>
<!DOCTYPE svg PUBLIC "-//W3C//DTD SVG 20010904//EN"
 "http://www.w3.org/TR/2001/REC-SVG-20010904/DTD/svg10.dtd">
<svg version="1.0" xmlns="http://www.w3.org/2000/svg"
 width="1712.000000pt" height="1712.000000pt" viewBox="0 0 1712.000000 1712.000000"
 preserveAspectRatio="xMidYMid meet">
<metadata>
Created by potrace 1.14, written by Peter Selinger 2001-2017
</metadata>
<g transform="translate(0.000000,1712.000000) scale(0.100000,-0.100000)"
fill="#000000" stroke="none">
<path d="M10210 17020 c-25 -16 -50 -33 -56 -37 -13 -10 -52 -33 -89 -52 -16
-9 -32 -18 -35 -21 -3 -3 -63 -41 -135 -85 -71 -43 -132 -81 -135 -85 -3 -3
-16 -11 -30 -18 -14 -7 -38 -21 -55 -32 -16 -11 -38 -23 -47 -26 -10 -4 -18
-10 -18 -13 0 -4 -21 -18 -47 -31 -27 -13 -50 -26 -53 -30 -9 -11 -241 -150
-250 -150 -6 0 -10 -4 -10 -10 0 -5 -7 -10 -15 -10 -8 0 -15 -4 -15 -10 0 -5
-6 -10 -14 -10 -8 0 -21 -6 -28 -13 -7 -7 -20 -16 -28 -20 -8 -4 -28 -16 -45
-27 -16 -11 -37 -23 -45 -27 -8 -3 -29 -17 -46 -30 -17 -13 -36 -23 -42 -23
-7 0 -12 -4 -12 -8 0 -4 -12 -13 -27 -20 -32 -14 -86 -44 -93 -53 -4 -4 -357
-222 -523 -322 -34 -20 -69 -41 -77 -46 -8 -5 -76 -47 -150 -92 -74 -46 -138
-87 -141 -92 -3 -5 -10 -9 -15 -9 -5 0 -33 -16 -62 -34 -29 -19 -54 -34 -57
-34 -2 0 -24 -13 -48 -30 -25 -16 -50 -30 -56 -30 -6 0 -11 -4 -11 -10 0 -5
-6 -10 -14 -10 -7 0 -16 -8 -20 -17 -20 -60 -38 -107 -66 -178 -17 -44 -33
-87 -35 -95 -2 -8 -9 -28 -16 -45 -7 -16 -13 -32 -13 -35 -1 -3 -5 -11 -9 -17
-5 -7 -10 -23 -12 -35 -3 -13 -9 -32 -15 -43 -8 -18 -56 -144 -64 -170 -2 -5
-9 -23 -15 -40 -7 -16 -14 -34 -15 -40 -2 -5 -8 -23 -14 -38 -7 -16 -12 -30
-12 -32 0 -2 -5 -16 -12 -32 -6 -15 -12 -32 -14 -38 -4 -17 -65 -178 -80 -212
-8 -17 -14 -36 -14 -42 0 -7 -7 -23 -16 -36 -9 -14 -13 -25 -9 -25 4 0 2 -7
-5 -15 -7 -8 -10 -15 -6 -15 4 0 0 -13 -9 -30 -8 -16 -16 -32 -16 -35 0 -2 -5
-18 -10 -35 -6 -16 -10 -32 -9 -36 1 -4 -2 -10 -7 -13 -5 -3 -14 -22 -20 -41
-6 -19 -37 -102 -68 -185 -31 -82 -71 -193 -90 -245 -19 -52 -39 -103 -45
-112 -5 -10 -10 -23 -10 -29 0 -6 -6 -25 -14 -42 -21 -48 -57 -143 -60 -158
-2 -8 -8 -27 -14 -42 -7 -15 -15 -39 -18 -52 -3 -14 -10 -25 -15 -25 -5 0 -8
-3 -7 -7 2 -8 -40 -140 -51 -158 -3 -5 -6 -15 -7 -21 -1 -6 -9 -27 -17 -45 -8
-19 -20 -50 -27 -69 -7 -19 -16 -44 -20 -55 -29 -76 -43 -111 -75 -200 -33
-89 -72 -193 -111 -295 -7 -19 -54 -145 -104 -280 -50 -135 -112 -299 -137
-365 -24 -66 -49 -131 -54 -145 -4 -14 -14 -38 -20 -55 -7 -16 -13 -32 -13
-35 -1 -3 -11 -30 -23 -60 -12 -30 -33 -89 -48 -130 -15 -41 -33 -89 -41 -107
-8 -17 -14 -37 -14 -45 0 -8 -4 -18 -9 -23 -5 -6 -14 -28 -21 -50 -7 -22 -18
-53 -25 -70 -7 -16 -25 -64 -40 -105 -15 -41 -41 -111 -58 -155 -16 -44 -36
-98 -44 -120 -7 -22 -18 -49 -22 -60 -11 -25 -23 -57 -27 -70 -1 -5 -8 -23
-15 -40 -6 -16 -13 -34 -15 -40 -1 -5 -33 -89 -69 -185 -37 -96 -68 -179 -69
-185 -2 -5 -8 -21 -13 -35 -6 -14 -38 -101 -72 -195 -34 -93 -68 -183 -76
-200 -8 -16 -26 -66 -41 -110 -15 -44 -31 -85 -35 -91 -5 -6 -10 -19 -12 -30
-2 -10 -9 -32 -15 -47 -7 -16 -12 -30 -12 -33 0 -3 -7 -21 -16 -42 -10 -20
-18 -45 -20 -54 -2 -9 -15 -42 -28 -72 -14 -31 -22 -56 -19 -56 3 0 -1 -7 -8
-17 -8 -9 -13 -19 -13 -22 1 -3 0 -10 -2 -16 -44 -121 -124 -338 -135 -365 -6
-14 -22 -56 -36 -95 -14 -38 -30 -81 -36 -95 -5 -14 -11 -29 -13 -35 -1 -5
-19 -53 -39 -105 -20 -52 -38 -99 -39 -105 -2 -5 -8 -23 -15 -40 -6 -16 -23
-61 -37 -100 -14 -38 -32 -86 -40 -105 -25 -64 -125 -332 -141 -379 -8 -25
-21 -59 -28 -76 -7 -16 -25 -64 -40 -105 -15 -41 -29 -82 -32 -90 -4 -8 -7
-17 -8 -20 -1 -3 -5 -12 -8 -20 -17 -40 -137 -366 -137 -372 0 -4 10 -5 22 -2
29 5 81 13 133 19 22 3 51 7 65 10 14 3 43 8 65 10 22 2 49 6 60 8 11 3 45 8
75 12 30 4 64 9 75 11 11 3 45 7 74 10 30 3 57 7 60 9 5 3 68 12 141 20 14 2
41 6 60 9 19 3 51 8 70 10 19 3 53 8 75 12 22 4 52 8 68 8 15 1 27 5 27 9 0 5
4 6 8 3 5 -3 51 2 103 10 52 9 108 17 124 19 17 2 30 4 30 5 0 1 11 3 25 4 24
2 118 15 151 21 9 2 40 6 69 10 29 4 61 8 70 10 9 2 41 6 70 10 29 4 62 9 74
11 12 2 39 6 61 9 22 3 67 10 100 15 33 5 80 12 105 15 25 3 56 8 70 10 14 2
45 7 70 10 25 3 56 8 70 10 133 21 170 27 200 30 19 2 67 9 105 15 39 7 85 14
104 16 19 2 80 10 135 19 56 9 116 18 134 20 48 7 93 14 127 19 17 3 53 8 80
12 67 9 83 12 95 19 6 3 10 2 10 -4 0 -7 8 -7 23 -1 18 7 108 22 217 36 14 1
40 5 57 9 18 3 53 8 79 11 l46 4 -6 -47 c-3 -27 -8 -59 -10 -73 -3 -14 -10
-61 -16 -105 -7 -44 -14 -89 -16 -100 -3 -11 -7 -40 -10 -65 -3 -25 -7 -56
-10 -70 -9 -48 -16 -95 -20 -125 -4 -32 -9 -67 -18 -130 -4 -22 -11 -71 -17
-110 -6 -38 -12 -81 -14 -95 -3 -14 -7 -45 -10 -70 -3 -25 -7 -52 -10 -60 -2
-8 -6 -35 -9 -60 -3 -25 -8 -54 -10 -65 -2 -11 -7 -42 -10 -70 -13 -98 -17
-121 -27 -172 -6 -29 -8 -57 -5 -62 4 -5 2 -12 -3 -15 -5 -4 -8 -17 -6 -31 1
-14 -2 -25 -7 -25 -5 0 -7 -4 -4 -9 3 -5 1 -33 -4 -62 -6 -30 -13 -76 -17
-104 -6 -50 -10 -76 -13 -85 -1 -3 -2 -8 -1 -12 0 -4 -4 -30 -9 -57 -5 -28
-12 -72 -15 -98 -4 -26 -9 -59 -11 -73 -3 -14 -6 -32 -6 -40 0 -8 -4 -36 -9
-62 -11 -60 -21 -134 -25 -173 -1 -16 -3 -30 -4 -30 -4 0 -22 -131 -24 -167 0
-10 -3 -18 -6 -18 -3 0 -5 -12 -6 -27 -1 -27 -9 -88 -19 -143 -3 -14 -7 -38
-9 -55 -10 -71 -18 -122 -21 -145 -3 -14 -7 -43 -9 -65 -3 -22 -8 -51 -11 -65
-4 -22 -7 -43 -21 -140 -2 -20 -7 -47 -9 -60 -3 -14 -8 -45 -11 -70 -2 -25 -9
-70 -14 -100 -5 -30 -11 -72 -14 -93 -13 -84 -18 -113 -22 -137 -3 -14 -7 -43
-9 -65 -3 -22 -6 -49 -9 -60 -2 -11 -7 -45 -12 -75 -4 -30 -8 -57 -9 -60 -1
-3 -5 -32 -9 -65 -5 -33 -10 -69 -13 -80 -2 -11 -6 -40 -9 -65 -2 -25 -7 -56
-9 -69 -2 -13 -7 -45 -11 -70 -4 -25 -8 -55 -11 -66 -4 -20 -8 -44 -18 -120
-3 -22 -7 -49 -9 -60 -2 -11 -7 -40 -10 -65 -3 -25 -8 -55 -10 -67 -3 -11 -7
-43 -11 -70 -4 -26 -9 -59 -11 -73 -2 -14 -7 -44 -10 -66 -2 -23 -6 -50 -8
-60 -2 -11 -9 -55 -16 -99 -6 -44 -13 -91 -16 -105 -2 -14 -6 -45 -10 -70 -3
-25 -8 -53 -11 -64 -3 -10 -6 -36 -8 -57 -2 -21 -6 -51 -9 -66 -5 -25 -9 -50
-22 -143 -2 -14 -6 -43 -8 -65 -3 -22 -8 -51 -11 -65 -4 -13 -8 -40 -11 -60
-8 -70 -15 -115 -19 -140 -6 -32 -12 -74 -20 -130 -7 -48 -12 -82 -19 -116 -2
-11 -7 -47 -10 -80 -4 -32 -9 -68 -11 -79 -2 -11 -7 -36 -10 -55 -2 -19 -7
-46 -9 -60 -3 -14 -10 -61 -16 -105 -6 -44 -14 -93 -17 -110 -3 -16 -6 -41 -8
-55 -5 -44 -15 -114 -22 -145 -3 -16 -7 -41 -8 -55 -3 -24 -11 -84 -21 -142
-17 -107 -35 -232 -37 -257 -1 -12 -4 -21 -7 -21 -3 0 -5 -12 -5 -27 -1 -16
-4 -47 -8 -71 -8 -52 0 -49 33 15 14 26 28 50 31 53 3 3 14 23 25 45 10 22 38
73 61 113 24 40 43 74 43 76 0 3 21 42 48 88 26 46 54 97 62 113 8 17 17 32
20 35 3 3 18 30 35 60 16 30 39 73 51 95 13 22 35 62 49 89 43 79 50 91 55 96
3 3 15 25 28 50 13 25 33 63 46 85 41 74 94 170 112 205 11 19 22 37 27 38 4
2 7 12 7 23 0 10 4 19 9 19 5 0 14 12 20 28 6 15 24 50 40 77 17 28 49 86 72
130 23 44 45 82 49 85 3 3 17 28 30 55 13 28 26 52 29 55 3 3 14 21 25 40 36
68 89 165 111 205 25 45 46 82 95 170 18 33 41 74 50 90 161 290 194 351 191
354 -1 2 2 7 7 10 5 3 33 51 62 106 30 55 56 102 60 105 3 3 16 28 30 55 14
28 28 52 33 53 4 2 7 8 7 13 0 5 20 44 44 87 23 42 54 97 68 122 14 25 45 81
69 125 24 44 49 89 56 100 6 11 24 45 40 75 15 30 31 57 36 58 4 2 7 9 7 17 0
7 7 18 15 25 8 7 12 16 9 21 -3 5 0 9 5 9 6 0 11 4 11 9 0 5 21 46 47 92 25
46 58 107 72 134 14 28 28 52 31 55 5 5 42 72 82 150 13 25 26 47 29 50 3 3
27 46 54 95 26 50 53 99 59 110 6 11 16 23 21 27 6 4 6 8 1 8 -5 0 -3 8 5 18
16 20 36 54 57 97 8 17 22 38 30 48 8 9 12 17 8 17 -4 0 1 12 12 28 10 15 41
68 68 117 27 50 57 104 66 120 10 17 28 50 40 75 13 25 27 48 33 52 7 5 7 8 0
8 -6 0 -6 3 1 8 11 8 124 211 124 224 0 4 5 8 10 8 6 0 10 5 10 10 0 6 20 45
43 88 24 42 57 102 74 132 31 56 63 114 110 198 14 26 33 61 41 77 9 17 18 32
21 35 3 3 18 28 32 55 33 62 72 133 139 255 29 52 65 118 79 145 14 28 29 52
32 55 3 3 30 50 59 105 29 55 56 102 59 105 3 3 18 30 33 60 15 30 51 96 79
145 70 123 120 214 140 253 10 18 23 39 29 47 7 8 9 15 5 15 -5 0 -1 8 7 18 8
9 32 49 53 87 21 39 49 90 63 115 14 25 34 63 45 85 12 22 23 42 26 45 5 5 40
68 80 145 9 16 19 32 22 35 3 3 14 23 25 45 22 44 84 156 124 225 14 25 33 60
41 78 7 17 17 32 21 32 5 0 8 4 8 9 0 8 156 296 179 331 6 8 18 31 28 50 9 19
36 68 60 108 23 39 40 72 37 72 -3 0 2 7 10 16 9 8 16 22 16 30 0 8 4 14 8 14
4 0 14 16 21 35 7 19 17 35 22 35 5 0 9 9 9 20 0 11 4 20 9 20 5 0 13 10 17
22 5 18 89 172 124 228 5 8 22 40 37 70 15 30 33 61 40 68 6 6 15 22 19 35 3
12 14 33 24 47 9 14 33 54 52 90 19 36 44 81 55 100 11 19 37 67 57 105 21 39
42 75 47 81 5 6 6 14 2 17 -3 4 -1 7 5 7 6 0 20 19 31 43 11 23 29 58 40 77
51 89 141 252 141 256 0 2 11 21 23 42 34 53 97 171 97 181 0 4 -15 6 -32 5
-31 -3 -148 -11 -263 -19 -27 -2 -93 -6 -145 -10 -52 -3 -120 -7 -150 -10 -30
-3 -95 -7 -145 -10 -49 -3 -114 -8 -143 -10 -29 -3 -98 -8 -153 -11 -55 -3
-116 -7 -137 -9 -69 -7 -267 -19 -324 -19 -32 -1 -58 -3 -58 -6 0 -3 -19 -5
-42 -4 -24 0 -46 -1 -51 -3 -4 -3 -47 -6 -95 -8 -48 -2 -114 -6 -147 -9 -75
-6 -183 -14 -300 -21 -49 -4 -115 -8 -145 -11 -30 -2 -95 -6 -145 -9 -49 -3
-119 -8 -155 -10 -64 -5 -116 -9 -289 -20 -49 -3 -106 -7 -127 -10 -22 -2 -86
-7 -144 -10 -184 -12 -203 -13 -291 -19 -151 -11 -239 -16 -239 -12 0 4 17 88
25 126 3 14 8 39 10 55 3 17 12 64 20 105 16 81 22 115 31 170 3 19 7 37 9 40
2 3 6 25 10 50 4 25 8 47 11 51 2 4 6 26 9 50 3 24 8 55 11 69 6 32 33 165 39
199 3 14 7 37 10 51 12 58 19 96 21 115 1 11 3 20 4 20 1 0 4 14 6 30 2 17 9
49 14 72 6 23 10 46 9 50 -1 5 0 10 1 13 8 21 25 110 36 185 1 11 3 20 4 20 1
0 3 11 6 25 2 14 11 60 20 103 8 42 17 90 20 105 2 15 7 41 11 57 3 17 7 39 9
50 1 11 8 45 14 75 6 30 13 64 15 75 2 11 8 45 14 75 6 30 13 69 15 85 6 31
20 102 30 145 3 13 8 40 11 60 3 20 7 45 9 55 36 182 78 406 81 427 2 15 6 35
9 45 3 10 7 29 10 43 13 77 20 114 42 220 8 41 17 89 19 105 3 17 7 41 10 55
6 25 21 103 29 150 3 14 5 25 6 25 1 0 3 9 4 20 4 26 14 83 21 115 3 14 8 40
11 59 3 18 8 43 10 55 2 11 6 32 9 46 3 14 7 36 10 50 4 14 8 39 11 55 3 17
14 77 25 134 12 57 23 116 25 130 3 14 7 37 9 51 9 44 15 73 31 160 9 47 18
94 20 105 3 11 7 35 10 54 3 18 8 43 10 55 3 11 9 44 14 71 6 28 12 61 15 75
3 14 8 39 10 55 3 17 13 66 21 110 8 44 17 91 20 105 2 14 9 48 15 75 6 28 13
64 15 80 3 17 11 59 19 95 7 36 16 81 19 100 3 19 8 46 11 60 7 34 13 68 21
115 3 22 7 42 9 45 2 3 6 24 9 46 4 22 8 49 10 59 2 11 14 70 26 130 12 61 23
117 25 126 2 9 6 32 9 50 3 19 10 57 16 84 6 28 12 64 15 80 2 17 7 41 10 55
10 47 15 75 21 110 3 19 7 43 10 52 7 23 13 57 19 98 3 19 7 42 9 50 12 58 20
98 22 115 1 11 3 20 4 20 1 0 3 11 6 25 2 14 6 36 8 50 3 14 12 61 21 105 9
44 18 91 20 105 2 14 6 35 9 46 2 12 7 38 10 59 4 20 8 40 10 44 3 5 15 75 20
121 1 9 5 21 10 28 13 21 -17 13 -64 -18z"/>
</g>
</svg>
